<?xml version="1.0" encoding="utf-8"?>
<!-- Generator: Adobe Illustrator 19.2.1, SVG Export Plug-In . SVG Version: 6.00 Build 0)  -->
<svg version="1.1" id="Layer_1" xmlns="http://www.w3.org/2000/svg" xmlns:xlink="http://www.w3.org/1999/xlink" x="0px" y="0px"
	 viewBox="0 0 720 720.7" style="enable-background:new 0 0 720 720.7;" xml:space="preserve">
<style type="text/css">
	.st0{fill:#FF4240;}
	.st1{fill:#FFFFFF;}
	
	circle:hover{
	fill:#272727;}
</style>
<circle class="st0" cx="359.6" cy="359.8" r="353.8"/>
<g>
	<path class="st1" d="M466.2,231.8c1.5,1.5,3.5,2.3,5.5,2.3c2,0,4-0.8,5.5-2.3c3-3,3-8,0-11l-125-125c-3-3-8-3-11,0c-3,3-3,8,0,11
		L466.2,231.8z"/>
	<path class="st1" d="M497.4,200.6c1.5,1.5,3.5,2.3,5.5,2.3c2,0,4-0.8,5.5-2.3c3-3,3-8,0-11l-125-125c-3-3-8-3-11,0c-3,3-3,8,0,11
		L497.4,200.6z"/>
	<path class="st1" d="M231.3,471.5c-3-3-8-3-11,0c-3,3-3,8,0,11l125,125c1.5,1.5,3.5,2.3,5.5,2.3c2,0,4-0.8,5.5-2.3c3-3,3-8,0-11
		L231.3,471.5z"/>
	<path class="st1" d="M200.1,504.2c-3-3-8-3-11,0c-3,3-3,8,0,11l125,125c1.5,1.5,3.5,2.3,5.5,2.3s4-0.8,5.5-2.3c3-3,3-8,0-11
		L200.1,504.2z"/>
	<path class="st1" d="M514,439.6c-3-3-8-3-11,0L382.4,560.1L362.3,540l120.5-120.5c3-3,3-8,0-11c-3-3-8-3-11,0L351.2,528.9l-21-21
		L450,388.3c2.3-2.3,2.9-5.7,1.7-8.6c-0.3-1.4-1-2.8-2.1-3.9L329.4,255.7l48.4-48.4l57.2,57.2c1.5,1.5,3.5,2.3,5.5,2.3
		c2,0,4-0.8,5.5-2.3c3-3,3-8,0-11L321.1,128.6c-0.3-0.4-0.6-0.7-0.9-1.1c-3-3-8-3-11,0l-125,125c-3,3-3,8,0,11
		c1.5,1.5,3.5,2.3,5.5,2.3c2,0,4-0.8,5.5-2.3l119.4-119.4l21,21L215.4,285.3c-3,3-3,8,0,11c1.5,1.5,3.5,2.3,5.5,2.3
		c2,0,4-0.8,5.5-2.3l120.2-120.2l20.2,20.2L246.6,316.5c-3,3-3,8,0,11c0.2,0.2,0.4,0.4,0.6,0.5c0.2,0.3,0.5,0.6,0.8,0.9l119.6,119.6
		l-48.4,48.4l-56.7-56.7c-3-3-8-3-11,0c-3,3-3,8,0,11l125,125c1.5,1.5,3.5,2.3,5.5,2.3c1.3,0,2.5-0.3,3.7-0.9c1.2-0.4,2.3-1,3.3-2
		l125-125C517,447.6,517,442.7,514,439.6z M433.9,382.2L412.2,404L296.7,288.5l21.7-21.7L433.9,382.2z M263.1,322l22.5-22.5
		L401.2,415l-22.5,22.5L263.1,322z"/>
</g>
</svg>